<?xml version="1.0" encoding="utf-8"?>
<!-- Generator: Adobe Illustrator 24.0.1, SVG Export Plug-In . SVG Version: 6.00 Build 0)  -->
<svg version="1.1" id="Layer_1" xmlns="http://www.w3.org/2000/svg" xmlns:xlink="http://www.w3.org/1999/xlink" x="0px" y="0px"
	 viewBox="0 0 689.9 207.8" style="enable-background:new 0 0 689.9 207.8;" xml:space="preserve">
<style type="text/css">
	.st0{fill:#AAAAAA;}
	.st1{fill:none;}
	.st2{fill:none;stroke:#D63369;stroke-width:3;stroke-linecap:round;stroke-linejoin:round;stroke-miterlimit:10;}
	.st3{fill:none;stroke:#D63369;stroke-width:2;stroke-miterlimit:10;}
</style>
<g id="Grid">
	<rect x="390.2" y="160.6" class="st0" width="1.3" height="1.3"/>
	<rect x="573.7" y="160.6" class="st0" width="1.3" height="1.3"/>
	<rect x="481.9" y="160.6" class="st0" width="1.3" height="1.3"/>
	<rect x="665.6" y="160.6" class="st0" width="1.3" height="1.3"/>
	<rect x="413.1" y="160.6" class="st0" width="1.3" height="1.3"/>
	<rect x="596.8" y="160.6" class="st0" width="1.3" height="1.3"/>
	<rect x="504.9" y="160.6" class="st0" width="1.3" height="1.3"/>
	<rect x="688.6" y="160.6" class="st0" width="1.3" height="1.3"/>
	<rect x="436.1" y="160.6" class="st0" width="1.3" height="1.3"/>
	<rect x="619.7" y="160.6" class="st0" width="1.3" height="1.3"/>
	<rect x="527.8" y="160.6" class="st0" width="1.3" height="1.3"/>
	<rect x="459" y="160.6" class="st0" width="1.3" height="1.3"/>
	<rect x="642.7" y="160.6" class="st0" width="1.3" height="1.3"/>
	<rect x="550.8" y="160.6" class="st0" width="1.3" height="1.3"/>
	<rect x="390.2" y="68.8" class="st0" width="1.3" height="1.3"/>
	<rect x="573.7" y="68.8" class="st0" width="1.3" height="1.3"/>
	<rect x="481.9" y="68.8" class="st0" width="1.3" height="1.3"/>
	<rect x="665.6" y="68.8" class="st0" width="1.3" height="1.3"/>
	<rect x="413.1" y="68.8" class="st0" width="1.3" height="1.3"/>
	<rect x="596.8" y="68.8" class="st0" width="1.3" height="1.3"/>
	<rect x="504.9" y="68.8" class="st0" width="1.3" height="1.3"/>
	<rect x="688.6" y="68.8" class="st0" width="1.3" height="1.3"/>
	<rect x="436.1" y="68.8" class="st0" width="1.3" height="1.3"/>
	<rect x="619.7" y="68.8" class="st0" width="1.3" height="1.3"/>
	<rect x="527.8" y="68.8" class="st0" width="1.3" height="1.3"/>
	<rect x="459" y="68.8" class="st0" width="1.3" height="1.3"/>
	<rect x="642.7" y="68.8" class="st0" width="1.3" height="1.3"/>
	<rect x="550.8" y="68.8" class="st0" width="1.3" height="1.3"/>
	<rect x="390.2" y="183.5" class="st0" width="1.3" height="1.3"/>
	<rect x="573.7" y="183.5" class="st0" width="1.3" height="1.3"/>
	<rect x="481.9" y="183.5" class="st0" width="1.3" height="1.3"/>
	<rect x="665.6" y="183.5" class="st0" width="1.3" height="1.3"/>
	<rect x="413.1" y="183.5" class="st0" width="1.3" height="1.3"/>
	<rect x="596.8" y="183.5" class="st0" width="1.3" height="1.3"/>
	<rect x="504.9" y="183.5" class="st0" width="1.3" height="1.3"/>
	<rect x="688.6" y="183.5" class="st0" width="1.3" height="1.3"/>
	<rect x="436.1" y="183.5" class="st0" width="1.3" height="1.3"/>
	<rect x="619.7" y="183.5" class="st0" width="1.3" height="1.3"/>
	<rect x="527.8" y="183.5" class="st0" width="1.3" height="1.3"/>
	<rect x="459" y="183.5" class="st0" width="1.3" height="1.3"/>
	<rect x="642.7" y="183.5" class="st0" width="1.3" height="1.3"/>
	<rect x="550.8" y="183.5" class="st0" width="1.3" height="1.3"/>
	<rect x="390.2" class="st0" width="1.3" height="1.3"/>
	<rect x="573.7" class="st0" width="1.3" height="1.3"/>
	<rect x="481.9" class="st0" width="1.3" height="1.3"/>
	<rect x="665.6" class="st0" width="1.3" height="1.3"/>
	<rect x="413.1" class="st0" width="1.3" height="1.3"/>
	<rect x="596.8" class="st0" width="1.3" height="1.3"/>
	<rect x="504.9" class="st0" width="1.3" height="1.3"/>
	<rect x="688.6" class="st0" width="1.3" height="1.3"/>
	<rect x="436.1" class="st0" width="1.3" height="1.3"/>
	<rect x="619.7" class="st0" width="1.3" height="1.3"/>
	<rect x="527.8" class="st0" width="1.3" height="1.3"/>
	<rect x="459" class="st0" width="1.3" height="1.3"/>
	<rect x="642.7" class="st0" width="1.3" height="1.3"/>
	<rect x="550.8" class="st0" width="1.3" height="1.3"/>
	<rect x="390.2" y="91.8" class="st0" width="1.3" height="1.3"/>
	<rect x="573.7" y="91.8" class="st0" width="1.3" height="1.3"/>
	<rect x="481.9" y="91.8" class="st0" width="1.3" height="1.3"/>
	<rect x="665.6" y="91.8" class="st0" width="1.3" height="1.3"/>
	<rect x="413.1" y="91.8" class="st0" width="1.3" height="1.3"/>
	<rect x="596.8" y="91.8" class="st0" width="1.3" height="1.3"/>
	<rect x="504.9" y="91.8" class="st0" width="1.3" height="1.3"/>
	<rect x="688.6" y="91.8" class="st0" width="1.3" height="1.3"/>
	<rect x="436.1" y="91.8" class="st0" width="1.3" height="1.3"/>
	<rect x="619.7" y="91.8" class="st0" width="1.3" height="1.3"/>
	<rect x="527.8" y="91.8" class="st0" width="1.3" height="1.3"/>
	<rect x="459" y="91.8" class="st0" width="1.3" height="1.3"/>
	<rect x="642.7" y="91.8" class="st0" width="1.3" height="1.3"/>
	<rect x="550.8" y="91.8" class="st0" width="1.3" height="1.3"/>
	<rect x="390.2" y="206.5" class="st0" width="1.3" height="1.3"/>
	<rect x="573.7" y="206.5" class="st0" width="1.3" height="1.3"/>
	<rect x="481.9" y="206.5" class="st0" width="1.3" height="1.3"/>
	<rect x="665.6" y="206.5" class="st0" width="1.3" height="1.3"/>
	<rect x="413.1" y="206.5" class="st0" width="1.3" height="1.3"/>
	<rect x="596.8" y="206.5" class="st0" width="1.3" height="1.3"/>
	<rect x="504.9" y="206.5" class="st0" width="1.3" height="1.3"/>
	<rect x="688.6" y="206.5" class="st0" width="1.3" height="1.3"/>
	<rect x="436.1" y="206.5" class="st0" width="1.3" height="1.3"/>
	<rect x="619.7" y="206.5" class="st0" width="1.3" height="1.3"/>
	<rect x="527.8" y="206.5" class="st0" width="1.3" height="1.3"/>
	<rect x="459" y="206.5" class="st0" width="1.3" height="1.3"/>
	<rect x="642.7" y="206.5" class="st0" width="1.3" height="1.3"/>
	<rect x="550.8" y="206.5" class="st0" width="1.3" height="1.3"/>
	<rect x="390.2" y="22.9" class="st0" width="1.3" height="1.3"/>
	<rect x="573.7" y="22.9" class="st0" width="1.3" height="1.3"/>
	<rect x="481.9" y="22.9" class="st0" width="1.3" height="1.3"/>
	<rect x="665.6" y="22.9" class="st0" width="1.3" height="1.3"/>
	<rect x="413.1" y="22.9" class="st0" width="1.3" height="1.3"/>
	<rect x="596.8" y="22.9" class="st0" width="1.3" height="1.3"/>
	<rect x="504.9" y="22.9" class="st0" width="1.3" height="1.3"/>
	<rect x="688.6" y="22.9" class="st0" width="1.3" height="1.3"/>
	<rect x="436.1" y="22.9" class="st0" width="1.3" height="1.3"/>
	<rect x="619.7" y="22.9" class="st0" width="1.3" height="1.3"/>
	<rect x="527.8" y="22.9" class="st0" width="1.3" height="1.3"/>
	<rect x="459" y="22.9" class="st0" width="1.3" height="1.3"/>
	<rect x="642.7" y="22.9" class="st0" width="1.3" height="1.3"/>
	<rect x="550.8" y="22.9" class="st0" width="1.3" height="1.3"/>
	<rect x="390.2" y="114.7" class="st0" width="1.3" height="1.3"/>
	<rect x="573.7" y="114.7" class="st0" width="1.3" height="1.3"/>
	<rect x="481.9" y="114.7" class="st0" width="1.3" height="1.3"/>
	<rect x="665.6" y="114.7" class="st0" width="1.3" height="1.3"/>
	<rect x="413.1" y="114.7" class="st0" width="1.3" height="1.3"/>
	<rect x="596.8" y="114.7" class="st0" width="1.3" height="1.3"/>
	<rect x="504.9" y="114.7" class="st0" width="1.3" height="1.3"/>
	<rect x="688.6" y="114.7" class="st0" width="1.3" height="1.3"/>
	<rect x="436.1" y="114.7" class="st0" width="1.3" height="1.3"/>
	<rect x="619.7" y="114.7" class="st0" width="1.3" height="1.3"/>
	<rect x="527.8" y="114.7" class="st0" width="1.3" height="1.3"/>
	<rect x="459" y="114.7" class="st0" width="1.3" height="1.3"/>
	<rect x="642.7" y="114.7" class="st0" width="1.3" height="1.3"/>
	<rect x="550.8" y="114.7" class="st0" width="1.3" height="1.3"/>
	<rect x="390.2" y="45.9" class="st0" width="1.3" height="1.3"/>
	<rect x="573.7" y="45.9" class="st0" width="1.3" height="1.3"/>
	<rect x="481.9" y="45.9" class="st0" width="1.3" height="1.3"/>
	<rect x="665.6" y="45.9" class="st0" width="1.3" height="1.3"/>
	<rect x="413.1" y="45.9" class="st0" width="1.3" height="1.3"/>
	<rect x="596.8" y="45.9" class="st0" width="1.3" height="1.3"/>
	<rect x="504.9" y="45.9" class="st0" width="1.3" height="1.3"/>
	<rect x="688.6" y="45.9" class="st0" width="1.3" height="1.3"/>
	<rect x="436.1" y="45.9" class="st0" width="1.3" height="1.3"/>
	<rect x="619.7" y="45.9" class="st0" width="1.3" height="1.3"/>
	<rect x="527.8" y="45.9" class="st0" width="1.3" height="1.3"/>
	<rect x="459" y="45.9" class="st0" width="1.3" height="1.3"/>
	<rect x="642.7" y="45.9" class="st0" width="1.3" height="1.3"/>
	<rect x="550.8" y="45.9" class="st0" width="1.3" height="1.3"/>
	<rect x="390.2" y="137.7" class="st0" width="1.3" height="1.3"/>
	<rect x="573.7" y="137.7" class="st0" width="1.3" height="1.3"/>
	<rect x="481.9" y="137.7" class="st0" width="1.3" height="1.3"/>
	<rect x="665.6" y="137.7" class="st0" width="1.3" height="1.3"/>
	<rect x="413.1" y="137.7" class="st0" width="1.3" height="1.3"/>
	<rect x="596.8" y="137.7" class="st0" width="1.3" height="1.3"/>
	<rect x="504.9" y="137.7" class="st0" width="1.3" height="1.3"/>
	<rect x="688.6" y="137.7" class="st0" width="1.3" height="1.3"/>
	<rect x="436.1" y="137.7" class="st0" width="1.3" height="1.3"/>
	<rect x="619.7" y="137.7" class="st0" width="1.3" height="1.3"/>
	<rect x="527.8" y="137.7" class="st0" width="1.3" height="1.3"/>
	<rect x="459" y="137.7" class="st0" width="1.3" height="1.3"/>
	<rect x="642.7" y="137.7" class="st0" width="1.3" height="1.3"/>
	<rect x="550.8" y="137.7" class="st0" width="1.3" height="1.3"/>
	<rect x="206.5" y="160.6" class="st0" width="1.3" height="1.3"/>
	<rect x="22.9" y="160.6" class="st0" width="1.3" height="1.3"/>
	<rect x="298.4" y="160.6" class="st0" width="1.3" height="1.3"/>
	<rect x="114.7" y="160.6" class="st0" width="1.3" height="1.3"/>
	<rect x="229.4" y="160.6" class="st0" width="1.3" height="1.3"/>
	<rect x="45.9" y="160.6" class="st0" width="1.3" height="1.3"/>
	<rect x="321.3" y="160.6" class="st0" width="1.3" height="1.3"/>
	<rect x="137.7" y="160.6" class="st0" width="1.3" height="1.3"/>
	<rect x="252.4" y="160.6" class="st0" width="1.3" height="1.3"/>
	<rect x="68.8" y="160.6" class="st0" width="1.3" height="1.3"/>
	<rect x="344.3" y="160.6" class="st0" width="1.3" height="1.3"/>
	<rect x="160.6" y="160.6" class="st0" width="1.3" height="1.3"/>
	<rect x="275.3" y="160.6" class="st0" width="1.3" height="1.3"/>
	<rect x="91.8" y="160.6" class="st0" width="1.3" height="1.3"/>
	<rect y="160.6" class="st0" width="1.3" height="1.3"/>
	<rect x="367.2" y="160.6" class="st0" width="1.3" height="1.3"/>
	<rect x="183.5" y="160.6" class="st0" width="1.3" height="1.3"/>
	<rect x="206.5" y="68.8" class="st0" width="1.3" height="1.3"/>
	<rect x="22.9" y="68.8" class="st0" width="1.3" height="1.3"/>
	<rect x="298.4" y="68.8" class="st0" width="1.3" height="1.3"/>
	<rect x="114.7" y="68.8" class="st0" width="1.3" height="1.3"/>
	<rect x="229.4" y="68.8" class="st0" width="1.3" height="1.3"/>
	<rect x="45.9" y="68.8" class="st0" width="1.3" height="1.3"/>
	<rect x="321.3" y="68.8" class="st0" width="1.3" height="1.3"/>
	<rect x="137.7" y="68.8" class="st0" width="1.3" height="1.3"/>
	<rect x="252.4" y="68.8" class="st0" width="1.3" height="1.3"/>
	<rect x="68.8" y="68.8" class="st0" width="1.3" height="1.3"/>
	<rect x="344.3" y="68.8" class="st1" width="1.3" height="1.3"/>
	<rect x="160.6" y="68.8" class="st0" width="1.3" height="1.3"/>
	<rect x="275.3" y="68.8" class="st0" width="1.3" height="1.3"/>
	<rect x="91.8" y="68.8" class="st0" width="1.3" height="1.3"/>
	<rect y="68.8" class="st0" width="1.3" height="1.3"/>
	<rect x="367.2" y="68.8" class="st0" width="1.3" height="1.3"/>
	<rect x="183.5" y="68.8" class="st0" width="1.3" height="1.3"/>
	<rect x="206.5" y="183.5" class="st0" width="1.3" height="1.3"/>
	<rect x="22.9" y="183.5" class="st0" width="1.3" height="1.3"/>
	<rect x="298.4" y="183.5" class="st0" width="1.3" height="1.3"/>
	<rect x="114.7" y="183.5" class="st0" width="1.3" height="1.3"/>
	<rect x="229.4" y="183.5" class="st0" width="1.3" height="1.3"/>
	<rect x="45.9" y="183.5" class="st0" width="1.3" height="1.3"/>
	<rect x="321.3" y="183.5" class="st0" width="1.3" height="1.3"/>
	<rect x="137.7" y="183.5" class="st0" width="1.3" height="1.3"/>
	<rect x="252.4" y="183.5" class="st0" width="1.3" height="1.3"/>
	<rect x="68.8" y="183.5" class="st0" width="1.3" height="1.3"/>
	<rect x="344.3" y="183.5" class="st0" width="1.3" height="1.3"/>
	<rect x="160.6" y="183.5" class="st0" width="1.3" height="1.3"/>
	<rect x="275.3" y="183.5" class="st0" width="1.3" height="1.3"/>
	<rect x="91.8" y="183.5" class="st0" width="1.3" height="1.3"/>
	<rect y="183.5" class="st0" width="1.3" height="1.3"/>
	<rect x="367.2" y="183.5" class="st0" width="1.3" height="1.3"/>
	<rect x="183.5" y="183.5" class="st0" width="1.3" height="1.3"/>
	<rect x="206.5" class="st0" width="1.3" height="1.3"/>
	<rect x="22.9" class="st0" width="1.3" height="1.3"/>
	<rect x="298.4" class="st0" width="1.3" height="1.3"/>
	<rect x="114.7" class="st0" width="1.3" height="1.3"/>
	<rect x="229.4" class="st0" width="1.3" height="1.3"/>
	<rect x="45.9" class="st0" width="1.3" height="1.3"/>
	<rect x="321.3" class="st0" width="1.3" height="1.3"/>
	<rect x="137.7" class="st0" width="1.3" height="1.3"/>
	<rect x="252.4" class="st0" width="1.3" height="1.3"/>
	<rect x="68.8" class="st0" width="1.3" height="1.3"/>
	<rect x="344.3" class="st0" width="1.3" height="1.3"/>
	<rect x="160.6" class="st0" width="1.3" height="1.3"/>
	<rect x="275.3" class="st0" width="1.3" height="1.3"/>
	<rect x="91.8" class="st0" width="1.3" height="1.3"/>
	<rect class="st0" width="1.3" height="1.3"/>
	<rect x="367.2" class="st0" width="1.3" height="1.3"/>
	<rect x="183.5" class="st0" width="1.3" height="1.3"/>
	<rect x="206.5" y="91.8" class="st0" width="1.3" height="1.3"/>
	<rect x="22.9" y="91.8" class="st0" width="1.3" height="1.3"/>
	<rect x="298.4" y="91.8" class="st0" width="1.3" height="1.3"/>
	<rect x="114.7" y="91.8" class="st0" width="1.3" height="1.3"/>
	<rect x="229.4" y="91.8" class="st0" width="1.3" height="1.3"/>
	<rect x="45.9" y="91.8" class="st0" width="1.3" height="1.3"/>
	<rect x="321.3" y="91.8" class="st0" width="1.3" height="1.3"/>
	<rect x="137.7" y="91.8" class="st0" width="1.3" height="1.3"/>
	<rect x="252.4" y="91.8" class="st0" width="1.3" height="1.3"/>
	<rect x="68.8" y="91.8" class="st0" width="1.3" height="1.3"/>
	<rect x="344.3" y="91.8" class="st0" width="1.3" height="1.3"/>
	<rect x="160.6" y="91.8" class="st0" width="1.3" height="1.3"/>
	<rect x="275.3" y="91.8" class="st0" width="1.3" height="1.3"/>
	<rect x="91.8" y="91.8" class="st0" width="1.3" height="1.3"/>
	<rect y="91.8" class="st0" width="1.3" height="1.3"/>
	<rect x="367.2" y="91.8" class="st1" width="1.3" height="1.3"/>
	<rect x="183.5" y="91.8" class="st0" width="1.3" height="1.3"/>
	<rect x="206.5" y="206.5" class="st0" width="1.3" height="1.3"/>
	<rect x="22.9" y="206.5" class="st0" width="1.3" height="1.3"/>
	<rect x="114.7" y="206.5" class="st0" width="1.3" height="1.3"/>
	<rect x="229.4" y="206.5" class="st0" width="1.3" height="1.3"/>
	<rect x="45.9" y="206.5" class="st0" width="1.3" height="1.3"/>
	<rect x="321.3" y="206.5" class="st0" width="1.3" height="1.3"/>
	<rect x="298.4" y="206.5" class="st0" width="1.3" height="1.3"/>
	<rect x="137.7" y="206.5" class="st0" width="1.3" height="1.3"/>
	<rect x="252.4" y="206.5" class="st0" width="1.3" height="1.3"/>
	<rect x="68.8" y="206.5" class="st0" width="1.3" height="1.3"/>
	<rect x="344.3" y="206.5" class="st0" width="1.3" height="1.3"/>
	<rect x="160.6" y="206.5" class="st0" width="1.3" height="1.3"/>
	<rect x="275.3" y="206.5" class="st0" width="1.3" height="1.3"/>
	<rect x="91.8" y="206.5" class="st0" width="1.3" height="1.3"/>
	<rect y="206.5" class="st0" width="1.3" height="1.3"/>
	<rect x="367.2" y="206.5" class="st0" width="1.3" height="1.3"/>
	<rect x="183.5" y="206.5" class="st0" width="1.3" height="1.3"/>
	<rect x="206.5" y="22.9" class="st0" width="1.3" height="1.3"/>
	<rect x="22.9" y="22.9" class="st0" width="1.3" height="1.3"/>
	<rect x="298.4" y="22.9" class="st0" width="1.3" height="1.3"/>
	<rect x="114.7" y="22.9" class="st0" width="1.3" height="1.3"/>
	<rect x="229.4" y="22.9" class="st0" width="1.3" height="1.3"/>
	<rect x="45.9" y="22.9" class="st0" width="1.3" height="1.3"/>
	<rect x="321.3" y="22.9" class="st0" width="1.3" height="1.3"/>
	<rect x="137.7" y="22.9" class="st0" width="1.3" height="1.3"/>
	<rect x="252.4" y="22.9" class="st0" width="1.3" height="1.3"/>
	<rect x="68.8" y="22.9" class="st0" width="1.3" height="1.3"/>
	<rect x="344.3" y="22.9" class="st0" width="1.3" height="1.3"/>
	<rect x="160.6" y="22.9" class="st0" width="1.3" height="1.3"/>
	<rect x="275.3" y="22.9" class="st0" width="1.3" height="1.3"/>
	<rect x="91.8" y="22.9" class="st0" width="1.3" height="1.3"/>
	<rect y="22.9" class="st0" width="1.3" height="1.3"/>
	<rect x="367.2" y="22.9" class="st0" width="1.3" height="1.3"/>
	<rect x="183.5" y="22.9" class="st0" width="1.3" height="1.3"/>
	<rect x="206.5" y="114.7" class="st0" width="1.3" height="1.3"/>
	<rect x="22.9" y="114.7" class="st0" width="1.3" height="1.3"/>
	<rect x="298.4" y="114.7" class="st0" width="1.3" height="1.3"/>
	<rect x="114.7" y="114.7" class="st0" width="1.3" height="1.3"/>
	<rect x="229.4" y="114.7" class="st0" width="1.3" height="1.3"/>
	<rect x="45.9" y="114.7" class="st0" width="1.3" height="1.3"/>
	<rect x="321.3" y="114.7" class="st1" width="1.3" height="1.3"/>
	<rect x="137.7" y="114.7" class="st0" width="1.3" height="1.3"/>
	<rect x="252.4" y="114.7" class="st0" width="1.3" height="1.3"/>
	<rect x="68.8" y="114.7" class="st0" width="1.3" height="1.3"/>
	<rect x="344.3" y="114.7" class="st1" width="1.3" height="1.3"/>
	<rect x="160.6" y="114.7" class="st0" width="1.3" height="1.3"/>
	<rect x="275.3" y="114.7" class="st0" width="1.3" height="1.3"/>
	<rect x="91.8" y="114.7" class="st0" width="1.3" height="1.3"/>
	<rect y="114.7" class="st0" width="1.3" height="1.3"/>
	<rect x="367.2" y="114.7" class="st1" width="1.3" height="1.3"/>
	<rect x="183.5" y="114.7" class="st0" width="1.3" height="1.3"/>
	<rect x="206.5" y="45.9" class="st0" width="1.3" height="1.3"/>
	<rect x="22.9" y="45.9" class="st0" width="1.3" height="1.3"/>
	<rect x="298.4" y="45.9" class="st0" width="1.3" height="1.3"/>
	<rect x="114.7" y="45.9" class="st0" width="1.3" height="1.3"/>
	<rect x="229.4" y="45.9" class="st0" width="1.3" height="1.3"/>
	<rect x="45.9" y="45.9" class="st0" width="1.3" height="1.3"/>
	<rect x="321.3" y="45.9" class="st0" width="1.3" height="1.3"/>
	<rect x="137.7" y="45.9" class="st0" width="1.3" height="1.3"/>
	<rect x="252.4" y="45.9" class="st0" width="1.3" height="1.3"/>
	<rect x="68.8" y="45.9" class="st0" width="1.3" height="1.3"/>
	<rect x="344.3" y="45.9" class="st0" width="1.3" height="1.3"/>
	<rect x="160.6" y="45.9" class="st0" width="1.3" height="1.3"/>
	<rect x="275.3" y="45.9" class="st0" width="1.3" height="1.3"/>
	<rect x="91.8" y="45.9" class="st0" width="1.3" height="1.3"/>
	<rect y="45.9" class="st0" width="1.3" height="1.3"/>
	<rect x="367.2" y="45.9" class="st0" width="1.3" height="1.3"/>
	<rect x="183.5" y="45.9" class="st0" width="1.3" height="1.3"/>
	<rect x="206.5" y="137.7" class="st0" width="1.3" height="1.3"/>
	<rect x="22.9" y="137.7" class="st0" width="1.3" height="1.3"/>
	<rect x="298.4" y="137.7" class="st0" width="1.3" height="1.3"/>
	<rect x="114.7" y="137.7" class="st0" width="1.3" height="1.3"/>
	<rect x="229.4" y="137.7" class="st0" width="1.3" height="1.3"/>
	<rect x="45.9" y="137.7" class="st0" width="1.3" height="1.3"/>
	<rect x="321.3" y="137.7" class="st0" width="1.3" height="1.3"/>
	<rect x="137.7" y="137.7" class="st0" width="1.3" height="1.3"/>
	<rect x="252.4" y="137.7" class="st0" width="1.3" height="1.3"/>
	<rect x="68.8" y="137.7" class="st0" width="1.3" height="1.3"/>
	<rect x="344.3" y="137.7" class="st0" width="1.3" height="1.3"/>
	<rect x="160.6" y="137.7" class="st0" width="1.3" height="1.3"/>
	<rect x="275.3" y="137.7" class="st0" width="1.3" height="1.3"/>
	<rect x="91.8" y="137.7" class="st0" width="1.3" height="1.3"/>
	<rect y="137.7" class="st0" width="1.3" height="1.3"/>
	<rect x="367.2" y="137.7" class="st0" width="1.3" height="1.3"/>
	<rect x="183.5" y="137.7" class="st0" width="1.3" height="1.3"/>
</g>
<g>
	<g id="c">
		<polyline class="st2" points="325.5,115.2 372.6,115.2 340.7,59.9 		"/>
		<polyline class="st2" points="364.3,115.1 340.8,74.3 308.9,129.6 		"/>
		<polyline class="st2" points="344.9,81.6 321.3,122.3 385.2,122.3 		"/>
	</g>
	<circle class="st3" cx="344.9" cy="103.9" r="44.8"/>
</g>
</svg>
